<svg width="25" height="25" viewBox="0 0 25 25" fill="none" xmlns="http://www.w3.org/2000/svg">
<path fill-rule="evenodd" clip-rule="evenodd" d="M20.6725 5.82754C20.6725 6.65605 20.0008 7.32754 19.1725 7.32754C18.3441 7.32754 17.6725 6.65605 17.6725 5.82754C17.6725 4.99902 18.3441 4.32754 19.1725 4.32754C20.001 4.32754 20.6725 4.99902 20.6725 5.82754ZM12.5 16.6666C10.1988 16.6666 8.3334 14.8012 8.3334 12.5C8.3334 10.1988 10.1988 8.3334 12.5 8.3334C14.8012 8.3334 16.6666 10.1988 16.6666 12.5C16.6666 14.8012 14.8012 16.6666 12.5 16.6666ZM12.5 6.08105C8.95488 6.08105 6.08105 8.95488 6.08105 12.5C6.08105 16.0451 8.95488 18.9189 12.5 18.9189C16.0451 18.9189 18.9189 16.0451 18.9189 12.5C18.9189 8.95488 16.0451 6.08105 12.5 6.08105ZM12.5 2.25234C15.8377 2.25234 16.233 2.26504 17.551 2.3252C18.7697 2.38086 19.4316 2.58438 19.8721 2.75566C20.4555 2.98242 20.8719 3.25332 21.3094 3.69082C21.7469 4.12812 22.0178 4.54453 22.2445 5.12813C22.4156 5.56855 22.6193 6.23047 22.675 7.44922C22.7352 8.76738 22.7479 9.16269 22.7479 12.5004C22.7479 15.8381 22.7352 16.2334 22.675 17.5514C22.6193 18.7701 22.4158 19.432 22.2445 19.8725C22.0178 20.4559 21.7469 20.8723 21.3094 21.3098C20.8721 21.7473 20.4557 22.0182 19.8721 22.2449C19.4316 22.416 18.7697 22.6197 17.551 22.6754C16.233 22.7355 15.8377 22.7482 12.5 22.7482C9.16211 22.7482 8.7668 22.7355 7.44883 22.6754C6.23008 22.6197 5.56816 22.4162 5.12773 22.2449C4.54434 22.0182 4.12793 21.7473 3.69043 21.3098C3.25313 20.8725 2.98203 20.4561 2.75527 19.8725C2.58418 19.432 2.38047 18.7701 2.3248 17.5514C2.26465 16.2332 2.25195 15.8379 2.25195 12.5004C2.25195 9.16269 2.26465 8.76738 2.3248 7.44922C2.38047 6.23047 2.58398 5.56855 2.75527 5.12813C2.98203 4.54473 3.25293 4.12832 3.69043 3.69082C4.12773 3.25332 4.54414 2.98242 5.12773 2.75566C5.56816 2.58457 6.23008 2.38086 7.44883 2.3252C8.76699 2.26504 9.1623 2.25234 12.5 2.25234ZM12.5 0C9.10527 0 8.67949 0.0144531 7.34629 0.0751953C6.01582 0.135937 5.10703 0.347266 4.31211 0.65625C3.49004 0.975586 2.79297 1.40312 2.09805 2.09805C1.40312 2.79297 0.975586 3.49004 0.65625 4.31211C0.347266 5.10723 0.135937 6.01582 0.0751953 7.34629C0.0144531 8.67949 0 9.10527 0 12.5C0 15.8947 0.0144531 16.3205 0.0751953 17.6537C0.135937 18.9842 0.347266 19.8928 0.65625 20.6879C0.975586 21.51 1.40312 22.207 2.09805 22.902C2.79297 23.5969 3.49004 24.0242 4.31211 24.3438C5.10723 24.6527 6.01582 24.8641 7.34629 24.9248C8.67949 24.9855 9.10527 25 12.5 25C15.8947 25 16.3205 24.9855 17.6537 24.9248C18.9842 24.8641 19.8928 24.6527 20.6879 24.3438C21.51 24.0242 22.207 23.5969 22.902 22.902C23.5969 22.207 24.0242 21.51 24.3438 20.6879C24.6527 19.8928 24.8641 18.9842 24.9248 17.6537C24.9855 16.3205 25 15.8947 25 12.5C25 9.10527 24.9855 8.67949 24.9248 7.34629C24.8641 6.01582 24.6527 5.10723 24.3438 4.31211C24.0242 3.49004 23.5969 2.79297 22.902 2.09805C22.207 1.40312 21.51 0.975781 20.6879 0.65625C19.8928 0.347266 18.9842 0.135937 17.6537 0.0751953C16.3205 0.0144531 15.8947 0 12.5 0Z" fill="black"/>
</svg>
