<svg width="25" height="21" viewBox="0 0 25 21" fill="none" xmlns="http://www.w3.org/2000/svg">
<path d="M25 2.40495C24.081 2.81347 23.0919 3.08903 22.0541 3.21235C23.1137 2.578 23.9262 1.57319 24.3093 0.37452C23.3182 0.96269 22.221 1.38948 21.0523 1.61988C20.117 0.623185 18.7839 0 17.3086 0C14.4764 0 12.18 2.29635 12.18 5.1291C12.18 5.53052 12.2252 5.92179 12.313 6.29783C8.05016 6.08367 4.27045 4.04208 1.74066 0.938838C1.29915 1.696 1.04642 2.57698 1.04642 3.51785C1.04642 5.29708 1.95177 6.86722 3.32806 7.78678C2.48767 7.75988 1.69651 7.52898 1.00481 7.14481C1.0043 7.16613 1.0043 7.18795 1.0043 7.20977C1.0043 9.6944 2.77236 11.7669 5.11895 12.2389C4.68861 12.3556 4.23543 12.4185 3.76753 12.4185C3.43666 12.4185 3.11542 12.3866 2.80231 12.3262C3.45543 14.3637 5.34935 15.8471 7.59343 15.8882C5.83805 17.264 3.62696 18.0841 1.22354 18.0841C0.809939 18.0841 0.401417 18.0597 0 18.012C2.27047 19.468 4.9662 20.3165 7.86239 20.3165C17.297 20.3165 22.4555 12.5013 22.4555 5.72336C22.4555 5.50109 22.4509 5.27932 22.4413 5.05907C23.443 4.33743 24.3129 3.43361 25 2.40495Z" fill="black"/>
</svg>
