<svg width="20" height="20" viewBox="0 0 20 20" fill="none" xmlns="http://www.w3.org/2000/svg">
<path d="M3.60005 13.1618C3.73422 13.4173 3.97186 13.575 4.23335 13.584C4.24785 13.585 4.26108 13.5856 4.27513 13.5856C4.41818 13.5856 4.63854 13.5177 7.0173 12.7535C7.84119 12.4904 8.0637 12.4194 8.12995 12.3972C8.47371 12.3094 8.71104 11.9958 8.73457 11.5978C8.75637 11.1921 8.53775 10.8321 8.19462 10.7037C7.66602 10.4883 7.47982 10.4123 7.40517 10.3858L7.40626 10.3833C4.572 9.2139 4.55828 9.21361 4.39511 9.21174C4.13066 9.19957 3.88927 9.33702 3.73157 9.58543C3.43378 10.0641 3.3194 11.4679 3.41617 12.4044C3.45452 12.7479 3.51637 13.0025 3.60005 13.1618Z" fill="#010101"/>
<path d="M9.55578 13.1231C9.17727 12.9769 8.76852 13.0732 8.54054 13.3587C8.54054 13.3587 8.16965 13.7991 8.03721 13.9556L7.98951 14.0116C6.00577 16.3398 5.99875 16.36 5.9453 16.5146C5.90727 16.6178 5.89404 16.7238 5.90572 16.8266C5.91976 16.9759 5.98503 17.1245 6.09521 17.2573C6.53497 17.7797 8.4389 18.5043 9.28476 18.5043C9.3488 18.5043 9.40694 18.5002 9.45774 18.4915C9.74883 18.4385 9.96093 18.2718 10.0564 18.0169C10.1091 17.8629 10.1133 17.8505 10.1211 15.1134C10.1211 15.1134 10.1272 13.979 10.1277 13.9447C10.1503 13.5881 9.92572 13.2655 9.55578 13.1231Z" fill="#010101"/>
<path d="M9.73714 2.036L9.73386 2.02105C9.66076 1.75458 9.45116 1.5598 9.15852 1.48684C8.37859 1.29298 5.52842 2.09457 4.97817 2.66243C4.7781 2.87061 4.69688 3.14146 4.77199 3.41695C4.85458 3.58683 7.95672 8.46839 8.30906 9.02285C8.62227 9.53024 8.95965 9.78549 9.31449 9.78549C9.39348 9.78549 9.47328 9.77303 9.55386 9.74745C9.9969 9.61128 10.2039 9.17585 10.1688 8.45375C10.1197 7.32586 9.78078 2.28783 9.73714 2.036Z" fill="#010101"/>
<path d="M11.6819 11.1734C11.4647 11.1191 11.2629 10.9758 11.1242 10.7632C10.9079 10.4316 10.9147 10.0398 11.1416 9.76465C11.1723 9.72507 11.8349 8.82251 11.8349 8.82251C13.4256 6.64678 13.4585 6.60346 13.5947 6.51466C13.8179 6.36412 14.0893 6.35199 14.3567 6.48164C15.0045 6.79735 16.2724 8.66827 16.352 9.42561L16.3534 9.43807L16.3529 9.46735C16.3704 9.75251 16.259 9.99749 16.0386 10.1474C15.9023 10.2359 15.8744 10.254 12.9111 10.9717C12.9111 10.9717 12.0766 11.2286 11.6819 11.1734Z" fill="#010101"/>
<path d="M16.1781 13.6614C16.0508 13.5663 16.0404 13.5585 13.4347 12.7021C13.0149 12.5637 12.3738 12.3518 12.3266 12.3337C11.9944 12.2062 11.6188 12.3206 11.3703 12.6267C11.1136 12.9395 11.0796 13.3603 11.283 13.6701L11.7262 14.3913C13.2767 16.9098 13.3432 17.0055 13.4752 17.1087C13.6031 17.209 13.7518 17.2595 13.9103 17.2595C14.0131 17.2595 14.12 17.2383 14.2282 17.195C14.9089 16.9233 16.3372 15.1084 16.4433 14.3795C16.4831 14.0896 16.3879 13.829 16.1781 13.6614Z" fill="#010101"/>
</svg>
